# AST/ASF file generated using VICON BodyLanguage
# -----------------------------------------------
:version 1.10
:name VICON
:units
  mass 1.0
  length 0.45
  angle deg
:documentation
   .ast/.asf automatically generated from VICON data using
   VICON BodyBuilder and BodyLanguage model FoxedUp or BRILLIANT.MOD
:root
   order TX TY TZ RX RY RZ
   axis XYZ
   position 0 0 0  
   orientation 0 0 0 
:bonedata
  begin
     id 1 
     name lhipjoint
     direction 0.61522 -0.761478 0.204097 
     length 2.55743 
     axis 0 0 0  XYZ
  end
  begin
     id 2 
     name lfemur
     direction 0.34202 -0.939693 0  
     length 7.61162  
     axis 0 0 20  XYZ
    dof rx ry rz
    limits (-160.0 20.0)
           (-70.0 70.0)
           (-60.0 70.0)
  end
  begin
     id 3 
     name ltibia
     direction 0.34202 -0.939693 0   
     length 8.12393   
     axis 0 0 20   XYZ
    dof rx
    limits (-10.0 170.0)
  end
  begin
     id 4 
     name lfoot
     direction 0.0841971 -0.23133 0.969225   
     length 2.3572   
     axis -90 7.62852e-016 20   XYZ
    dof rx rz
    limits (-45.0 90.0)
           (-70.0 20.0)
  end
  begin
     id 5 
     name ltoes
     direction 1.53562e-011 -4.22209e-011 1   
     length 1.17993   
     axis -90 7.62852e-016 20   XYZ
    dof rx
    limits (-90.0 20.0)
  end
  begin
     id 6 
     name rhipjoint
     direction -0.625247 -0.75382 0.202044   
     length 2.58341  
     axis 0 0 0  XYZ 
  end
  begin
     id 7 
     name rfemur
     direction -0.34202 -0.939693 0   
     length 7.42147   
     axis 0 0 -20   XYZ
    dof rx ry rz
    limits (-160.0 20.0)
           (-70.0 70.0)
           (-70.0 60.0)
  end
  begin
     id 8 
     name rtibia
     direction -0.34202 -0.939693 0   
     length 8.20893   
     axis 0 0 -20   XYZ
    dof rx
    limits (-10.0 170.0)
 end
 begin
     id 9 
     name rfoot
     direction -0.124331 -0.341598 0.931586   
     length 2.45604  
     axis -90 -7.62852e-016 -20   XYZ
    dof rx rz
    limits (-45.0 90.0)
           (-20.0 70.0)
  end
  begin
     id 10 
     name rtoes
     direction -1.5353e-011 -4.2199e-011 1   
     length 1.21323   
     axis -90 -7.62852e-016 -20   XYZ
    dof rx
    limits (-90.0 20.0)
  end
  begin
     id 11 
     name lowerback
     direction -0.0218484 0.994884 -0.0986303   
     length 2.00523   
     axis 0 0 0   XYZ
    dof rx ry rz
    limits (-20.0 45.0)
           (-30.0 30.0)
           (-30.0 30.0)
  end
  begin
     id 12 
     name upperback
     direction -0.0097305 0.999717 -0.0217111   
     length 2.01352   
     axis 0 0 0   XYZ
    dof rx ry rz
    limits (-20.0 45.0)
           (-30.0 30.0)
           (-30.0 30.0)
  end
  begin
     id 13 
     name thorax
     direction -0.000928262 0.999699 0.0245198   
     length 2.02938   
     axis 0 0 0   XYZ
    dof rx ry rz
    limits (-20.0 45.0)
           (-30.0 30.0)
           (-30.0 30.0)
  end
  begin
     id 14 
     name lowerneck
     direction -0.0307979 0.998024 0.0547665   
     length 1.77263   
     axis 0 0 0   XYZ
    dof rx ry rz
    limits (-20.0 45.0)
           (-30.0 30.0)
           (-30.0 30.0)
  end
  begin
     id 15 
     name upperneck
     direction 0.0531587 0.996611 -0.0627734   
     length 1.77971   
     axis 0 0 0   XYZ
    dof rx ry rz
    limits (-20.0 45.0)
           (-30.0 30.0)
           (-30.0 30.0)
  end
  begin
     id 16
     name head
     direction 0.0213833 0.999404 -0.0271147  
     length 1.78263  
     axis 0 0 0   XYZ
    dof rx ry rz
    limits (-20.0 45.0)
           (-30.0 30.0)
           (-30.0 30.0)
  end
  begin
     id 17 
     name lclavicle
     direction 0.940017 0.332249 -0.0773233  
     length 3.73315  
     axis 0 0 0   XYZ
    dof ry rz
    limits (-20.0 10.0)
           (0.0 20.0)
  end
  begin
     id 18 
     name lhumerus
     direction 1 -4.48944e-011 7.52288e-028   
     length 5.40188   
     axis 180 -30 -90   XYZ
    dof rx ry rz
    limits (-60.0 90.0)
           (-90.0 90.0)
           (-90.0 90.0)
  end
  begin
     id 19
     name lradius
     direction 1 -4.48988e-011 1.48381e-027   
     length 3.68559   
     axis 180 -30 -90   XYZ
    dof rx
    limits (-10.0 170.0)
  end
  begin
     id 20
     name lwrist
     direction 1 -4.48925e-011 2.56952e-028   
     length 1.84279   
     axis -5.12785e-016 90 90   XYZ
    dof ry
    limits (-180.0 0.0)
 end
  begin
     id 21 
     name lhand
     direction 1 -4.49009e-011 5.13905e-028   
     length 0.61753   
     axis -3.27915e-016 90 90   XYZ
    dof rx rz
    limits (-90.0 90.0)
           (-45.0 45.0)
  end
  begin
     id 22 
     name lfingers
     direction 1 -4.49012e-011 1.02781e-027   
     length 0.497868   
     axis -6.5583e-016 90 90   XYZ
    dof rx
    limits (0.0 90.0)
  end
  begin
     id 23
     name lthumb
     direction 0.707107 -6.34987e-011 0.707107   
     length 0.714842   
     axis -90 45 2.85299e-015   XYZ
    dof rx rz
    limits (-45.0 45.0)
           (-45.0 45.0)
  end
  begin
     id 24 
     name rclavicle
     direction -0.9009 0.425937 -0.0834057   
     length 3.27864  
     axis 0 0 0   XYZ 
    dof ry rz
    limits (-10.0 20.0)
           (-20.0 0.0)
  end
  begin
     id 25 
     name rhumerus
     direction -1 -4.48953e-011 -1.03572e-027  
     length 6.1067   
     axis 180 30 90   XYZ
    dof rx ry rz
    limits (-90.0 60.0)
           (-90.0 90.0)
           (-90.0 90.0)
  end
  begin
     id 26 
     name rradius
     direction -1 -4.48975e-011 1.20742e-027   
     length 3.63052   
     axis 180 30 90   XYZ
    dof rx
    limits (-10.0 170.0)
  end
  begin
     id 27 
     name rwrist
     direction -1 -4.49017e-011 2.56952e-028   
     length 1.81526   
     axis -5.12785e-016 -90 -90   XYZ
    dof ry
    limits (-180.0 0.0)
  end
  begin
     id 28
     name rhand
     direction -1 -4.48832e-011 5.13905e-028   
     length 0.583848   
     axis -3.27915e-016 -90 -90   XYZ
    dof rx rz
    limits (-90.0 90.0)
           (-45.0 45.0)
  end
  begin
     id 29
     name rfingers
     direction -1 -4.48729e-011 1.02781e-027   
     length 0.470713   
     axis -6.5583e-016 -90 -90   XYZ
    dof rx
    limits (0.0 90.0)
  end
  begin
     id 30
     name rthumb
     direction -0.707107 -6.34964e-011 0.707107   
     length 0.675852   
     axis -90 -45 -2.85299e-015   XYZ
    dof rx rz
    limits (-45.0 45.0)
           (-45.0 45.0)
  end
:hierarchy
  begin
    root lhipjoint rhipjoint lowerback
    lhipjoint lfemur
    lfemur ltibia
    ltibia lfoot
    lfoot ltoes
    rhipjoint rfemur
    rfemur rtibia
    rtibia rfoot
    rfoot rtoes
    lowerback upperback
    upperback thorax
    thorax lowerneck lclavicle rclavicle
    lowerneck upperneck
    upperneck head
    lclavicle lhumerus
    lhumerus lradius
    lradius lwrist
    lwrist lhand lthumb
    lhand lfingers
    rclavicle rhumerus
    rhumerus rradius
    rradius rwrist
    rwrist rhand rthumb
    rhand rfingers
  end

#!OML:ASF F:\VICON\USERDATA\INSTALL\rory3\rory3.ASF
:FULLY-SPECIFIED
:DEGREES
283
root 0.473005 18.2893 -2.65627 1.25214 -66.2856 -0.86172
lowerback 5.83865 -10.7383 -5.4336
upperback -0.373893 -14.6371 3.54553
thorax -1.32211 -7.30622 7.35248
lowerneck -9.30693 -3.67917 -8.84335
upperneck 13.2759 -6.03157 14.0393
head 6.23703 -2.47913 5.46613
rclavicle -1.79652e-014 1.03368e-014
rhumerus -27.3826 -13.8391 -32.7822
rradius 101.417
rwrist 15.8392
rhand -35.8479 16.9129
rfingers 7.12502
rthumb -8.96303 -12.8767
lclavicle -1.79652e-014 1.03368e-014
lhumerus 17.0637 -39.0721 54.0874
lradius 90.5743
lwrist -8.50887
lhand -29.2903 9.45019
lfingers 7.12502
lthumb -2.63207 39.4137
rfemur -28.565 39.0522 5.21178
rtibia 27.0206
rfoot -7.27016 20.8413
rtoes -5.39949
lfemur 3.05252 23.6678 -17.408
ltibia 26.7447
lfoot -42.5562 35.4024
ltoes 10.3711
284
root 0.463199 18.2897 -2.64484 1.25099 -66.4822 -0.8682
lowerback 5.91162 -10.8032 -5.43688
upperback -0.35307 -14.7271 3.51697
thorax -1.33256 -7.35108 7.33796
lowerneck -9.19711 -3.75076 -8.72987
upperneck 13.1149 -6.17176 14.2093
head 6.18726 -2.54012 5.48826
rclavicle 1.26725e-013 7.55382e-015
rhumerus -27.9802 -14.3423 -32.3882
rradius 101.555
rwrist 15.6762
rhand -35.8819 17.6887
rfingers 7.12502
rthumb -8.99583 -12.0995
lclavicle 1.26725e-013 7.55382e-015
lhumerus 17.6008 -39.4838 54.1254
lradius 90.4058
lwrist -8.93973
lhand -29.49 9.35462
lfingers 7.12502
lthumb -2.82496 39.3157
rfemur -28.6343 39.2218 5.19703
rtibia 27.143
rfoot -7.30333 20.81
rtoes -5.41001
lfemur 3.14206 23.6394 -17.4665
ltibia 26.6982
lfoot -42.8581 35.4249
ltoes 10.5321
285
root 0.454011 18.2897 -2.63457 1.4144 -66.6574 -0.963366
lowerback 5.89436 -10.8763 -5.33233
upperback -0.343172 -14.8164 3.48421
thorax -1.33311 -7.39612 7.24803
lowerneck -9.12437 -3.8197 -8.63739
upperneck 12.9492 -6.30289 14.393
head 6.14283 -2.59574 5.51909
rclavicle 2.36802e-014 2.34566e-014
rhumerus -28.6083 -14.8278 -32.0161
rradius 101.718
rwrist 15.5392
rhand -36.0563 17.6369
rfingers 7.12502
rthumb -9.16412 -12.144
lclavicle 2.36802e-014 2.34566e-014
lhumerus 18.1269 -39.7593 54.2826
lradius 90.177
lwrist -9.58119
lhand -29.65 9.79987
lfingers 7.12502
lthumb -2.97947 39.7588
rfemur -28.7803 39.356 5.16664
rtibia 27.2477
rfoot -7.37783 20.9373
rtoes -5.66951
lfemur 3.16125 23.6482 -17.5032
ltibia 26.5957
lfoot -43.0202 35.5273
ltoes 10.569
286
root 0.444906 18.2896 -2.62415 1.62966 -66.82 -1.05747
lowerback 5.86612 -10.9738 -5.2247
upperback -0.371808 -14.9378 3.48397
thorax -1.35539 -7.45575 7.19181
lowerneck -9.16483 -3.92181 -8.66912
upperneck 12.9157 -6.46107 14.5348
head 6.16544 -2.6654 5.55575
rclavicle -2.03406e-013 1.39149e-014
rhumerus -29.1503 -15.2399 -31.7273
rradius 101.895
rwrist 15.3668
rhand -36.2015 17.49
rfingers 7.12502
rthumb -9.3042 -12.2847
lclavicle -2.03406e-013 1.39149e-014
lhumerus 18.4107 -40.2373 54.0415
lradius 90.4732
lwrist -9.70161
lhand -29.6568 10.498
lfingers 7.12502
lthumb -2.98606 40.4568
rfemur -28.9715 39.4161 5.12963
rtibia 27.3357
rfoot -7.50122 21.0554
rtoes -5.74423
lfemur 3.11878 23.6142 -17.5781
ltibia 26.4897
lfoot -43.2042 35.6619
ltoes 10.6708
287
root 0.435537 18.2913 -2.61329 1.7351 -67.0267 -1.07091
lowerback 5.85001 -11.0792 -5.18563
upperback -0.380847 -15.0753 3.49817
thorax -1.34053 -7.52566 7.1832
lowerneck -9.29247 -3.99515 -8.7743
upperneck 12.9414 -6.57293 14.6996
head 6.21946 -2.7096 5.61707
rclavicle 7.48176e-014 8.74653e-015
rhumerus -29.5043 -15.5847 -31.481
rradius 102.016
rwrist 15.321
rhand -36.5332 17.3332
rfingers 7.12502
rthumb -9.62432 -12.4269
lclavicle 7.48176e-014 8.74653e-015
lhumerus 18.5694 -40.6463 53.8284
lradius 90.7897
lwrist -9.60911
lhand -29.6585 10.8466
lfingers 7.12502
lthumb -2.98766 40.8054
rfemur -29.1294 39.4545 5.10554
rtibia 27.4056
rfoot -7.60393 21.0518
rtoes -6.06661
lfemur 3.10524 23.619 -17.6764
ltibia 26.4123
lfoot -43.3022 35.9053
ltoes 10.456
288
root 0.42742 18.2908 -2.6039 2.03003 -67.2526 -1.35254
lowerback 5.88292 -11.1846 -5.13795
upperback -0.322483 -15.2149 3.59828
thorax -1.2601 -7.60354 7.25721
lowerneck -9.48469 -4.01523 -8.84797
upperneck 12.8929 -6.58118 14.7705
head 6.24472 -2.70506 5.64975
rclavicle 1.0471e-013 -1.51076e-014
rhumerus -29.7739 -16.1286 -31.3077
rradius 102.125
rwrist 15.3203
rhand -36.334 16.9263
rfingers 7.12502
rthumb -9.43206 -12.8427
lclavicle 1.0471e-013 -1.51076e-014
lhumerus 18.8333 -40.6606 54.0179
lradius 90.6519
lwrist -9.91183
lhand -29.5745 10.1737
lfingers 7.12502
lthumb -2.90657 40.1337
rfemur -29.2418 39.5643 5.20939
rtibia 27.4777
rfoot -7.68203 20.9315
rtoes -5.63686
lfemur 3.17573 23.6747 -17.6173
ltibia 26.3195
lfoot -43.5122 35.9209
ltoes 10.6841
289
root 0.418625 18.2881 -2.59702 2.30147 -67.4213 -1.6305
lowerback 5.93347 -11.2553 -5.09875
upperback -0.2506 -15.3094 3.65015
thorax -1.19315 -7.65759 7.28999
lowerneck -9.55701 -4.06032 -8.78089
upperneck 12.7371 -6.63971 14.8268
head 6.21692 -2.72692 5.6478
rclavicle -2.127e-014 2.50469e-014
rhumerus -30.3352 -16.9985 -31.1824
rradius 102.197
rwrist 15.396
rhand -35.9598 16.6114
rfingers 7.12502
rthumb -9.07103 -13.1735
lclavicle -2.127e-014 2.50469e-014
lhumerus 19.3137 -40.8251 53.9507
lradius 90.5354
lwrist -10.084
lhand -29.4103 9.78143
lfingers 7.12502
lthumb -2.74798 39.7435
rfemur -29.3366 39.7215 5.3019
rtibia 27.5612
rfoot -7.75647 20.8803
rtoes -3.17545
lfemur 3.28602 23.6464 -17.5466
ltibia 26.1949
lfoot -43.8764 35.7822
ltoes 11.2242
